<svg xmlns="http://www.w3.org/2000/svg" xmlns:xlink="http://www.w3.org/1999/xlink" width="114.4" height="38.9" viewBox="0 0 114.4 38.9"><defs><linearGradient id="a" x1="3545.05" y1="17446.93" x2="3506.11" y2="17446.93" gradientTransform="translate(17466.4 -3506.1) rotate(90)" gradientUnits="userSpaceOnUse"><stop offset="0" stop-color="#007aa3"/><stop offset="0.5" stop-color="#09c"/><stop offset="1" stop-color="#33add6"/></linearGradient></defs><title>juku_logo_color</title><path d="M581.2,986.4v-11h-3.7v11a3.7,3.7,0,0,1-3.7,3.7h-3.7V975.5h-3.7V1001h3.7v-7.3h3.7a3.7,3.7,0,0,1,3.7,3.7v3.7h3.7v-3.7a7.3,7.3,0,0,0-2.5-5.5A7.3,7.3,0,0,0,581.2,986.4Z" transform="translate(-483.8 -968.2)" fill="#09c"/><path d="M560.5,975.5v18.3a3.7,3.7,0,1,1-7.3,0V975.5h-3.7v18.3a7.3,7.3,0,1,0,14.6,0V975.5h-3.7Z" transform="translate(-483.8 -968.2)" fill="#09c"/><path d="M594.6,975.5v18.3a3.7,3.7,0,0,1-7.3,0V975.5h-3.7v18.3a7.3,7.3,0,1,0,14.6,0V975.5h-3.7Z" transform="translate(-483.8 -968.2)" fill="#09c"/><path d="M543.5,993.7a3.7,3.7,0,1,1-7.3,0v-3.7h-3.7v3.7a7.3,7.3,0,1,0,14.6,0V975.5h-3.7v18.3Z" transform="translate(-483.8 -968.2)" fill="#09c"/><rect width="38.9" height="38.94" rx="7.3" ry="7.3" fill="url(#a)"/><path d="M514.3,986.7v3.3a1.2,1.2,0,0,1-1.2,1.2H493.6a1.2,1.2,0,0,1-1.2-1.2h0l-2.4,1.6v7a2.4,2.4,0,0,0,2.4,2.4h21.9a2.4,2.4,0,0,0,2.4-2.4V985.1Zm-19.5,11.8a2.4,2.4,0,0,1-2.4-2.2V996A2.4,2.4,0,1,1,494.8,998.6Zm19.5-2.2a2.4,2.4,0,1,1,0-.4v0.4Z" transform="translate(-483.8 -968.2)" fill="#fff"/><path d="M492.4,981.2v-3.3a1.2,1.2,0,0,1,1.2-1.2h19.5a1.2,1.2,0,0,1,1.2,1.2h0l2.4-1.6a2.4,2.4,0,0,0-2.4-2.1H492.4a2.4,2.4,0,0,0-2.4,2.4v6.2Z" transform="translate(-483.8 -968.2)" fill="#fff"/><path d="M522.8,975.5v-0.2L508.1,985l-9.7-4.9-14.5,9.7v2.9l14.7-9.8,9.7,4.9,14.5-9.7v-2.7Z" transform="translate(-483.8 -968.2)" fill="#fff"/></svg>