<svg id="Layer_1" data-name="Layer 1" xmlns="http://www.w3.org/2000/svg" width="58.7" height="20" viewBox="0 0 58.7 20"><title>juku_logo_white</title><g id="mobiili_header"><path d="M561.7,1035.2v-5.3h-1.9v5.3a2.2,2.2,0,0,1-1.9,2.2h-1.9v-7.5h-1.9V1043h1.9v-3.7H558a1.6,1.6,0,0,1,1.9,1.6v2.2h1.9v-2.2A3.8,3.8,0,0,1,561.7,1035.2Z" transform="translate(-511.7 -1026.1)" fill="#fff"/><path d="M551.1,1029.8v9.1a1.9,1.9,0,1,1-3.7,0v-9.1h-1.9v9.1a3.7,3.7,0,1,0,7.5,0v-9.1h-1.9Z" transform="translate(-511.7 -1026.1)" fill="#fff"/><path d="M568.6,1029.8v9.1a1.9,1.9,0,1,1-3.7,0v-9.1H563v9.1a3.7,3.7,0,1,0,7.5,0v-9.1h-1.9Z" transform="translate(-511.7 -1026.1)" fill="#fff"/><path d="M542.4,1038.9a1.9,1.9,0,1,1-3.7,0v-1.6h-1.9v1.6a3.7,3.7,0,1,0,7.5,0v-9.1h-1.9v9.1Z" transform="translate(-511.7 -1026.1)" fill="#fff"/><path d="M526.1,1041.4a1.2,1.2,0,0,0,1.2-1.1h0a1.2,1.2,0,0,0-1.2-1.1A1.2,1.2,0,0,0,526.1,1041.4Z" transform="translate(-511.7 -1026.1)" fill="#fff"/><path d="M524.2,1034.4l7.6-4.8a3.6,3.6,0,0,0-3.7-3.5H515.5a3.5,3.5,0,0,0-3.7,3.4v7.4l7.4-5Zm-8.1-3.6v1.7l-1.2.8v-3.1a1,1,0,0,1,1.2-.9h11.2a1.1,1.1,0,0,1,1.2.9l-1.2.7h0c0-.3-0.3-0.3-0.6-0.3h-10C516.4,1030.5,516.1,1030.5,516.1,1030.8Z" transform="translate(-511.7 -1026.1)" fill="#fff"/><path d="M519.3,1033.4l-7.6,5v3.6a4,4,0,0,0,3.7,4.1H528a4,4,0,0,0,3.7-4.1v-11.1l-7.4,5Zm8.1,3.6v-1.7l1.2-.8v6.9a1.6,1.6,0,0,1-1.2,1.6H516.1a1.6,1.6,0,0,1-1.2-1.6v-3.6l1.2-.8h0a0.9,0.9,0,0,0,.6.8h10A1,1,0,0,0,527.4,1037Z" transform="translate(-511.7 -1026.1)" fill="#fff"/><path d="M516.1,1040h0a1.2,1.2,0,0,0,1.2,1.1,1.2,1.2,0,0,0,0-2.5A1.2,1.2,0,0,0,516.1,1040Z" transform="translate(-511.7 -1026.1)" fill="#fff"/></g></svg>