<svg id="Layer_1" data-name="Layer 1" xmlns="http://www.w3.org/2000/svg" width="121.61" height="41.4" viewBox="0 0 121.61 41.4"><title>juku_logo_white2</title><path d="M388.84,17V6H385V17c0,2.2-1.81,4.53-3.88,4.53h-3.88V6h-3.88V33.17h3.88V25.41h3.88c2.2,0,3.88,1,3.88,3.23v4.53h3.88V28.64a7.9,7.9,0,0,0-2.59-5.82A7.9,7.9,0,0,0,388.84,17Z" transform="translate(-285.34 1.76)" fill="#fff"/><path d="M366.84,6V24.76a3.88,3.88,0,0,1-7.76,0V6H355.2V24.76a7.76,7.76,0,0,0,15.52,0V6h-3.88Z" transform="translate(-285.34 1.76)" fill="#fff"/><path d="M403.07,6V24.76a3.88,3.88,0,1,1-7.76,0V6h-3.88V24.76a7.76,7.76,0,1,0,15.52,0V6h-3.88Z" transform="translate(-285.34 1.76)" fill="#fff"/><path d="M348.73,24.76a3.88,3.88,0,0,1-7.76,0V21.53h-3.88v3.23a7.76,7.76,0,0,0,15.52,0V6h-3.88V24.76Z" transform="translate(-285.34 1.76)" fill="#fff"/><path d="M315.1,29.94a2.55,2.55,0,0,0,2.59-2.33V27.09a2.55,2.55,0,0,0-2.59-2.33A2.59,2.59,0,0,0,315.1,29.94Z" transform="translate(-285.34 1.76)" fill="#fff"/><path d="M311.09,15.45l15.65-10A7.51,7.51,0,0,0,319-1.76H293.1c-4.27,0-7.76,2.85-7.76,7.12V20.62l15.39-10.35ZM294.4,7.94v3.49l-2.59,1.68V6.65c0-1.42,1.16-1.94,2.59-1.94h23.29a2.33,2.33,0,0,1,2.59,1.94l-2.59,1.42V7.94c0-.65-0.65-0.65-1.29-0.65h-20.7C294.92,7.3,294.4,7.3,294.4,7.94Z" transform="translate(-285.34 1.76)" fill="#fff"/><path d="M301,13.38L285.34,23.73v7.5c0,4.27,3.49,8.41,7.76,8.41H319c4.27,0,7.76-4.14,7.76-8.41V8.2L311.35,18.55Zm16.69,7.5V17.39l2.59-1.68V30.06c0,1.42-1.16,3.23-2.59,3.23H294.4c-1.42,0-2.59-1.81-2.59-3.23V22.69L294.4,21v0.13c0,0.52.52,1.68,1.29,1.68h20.7C317,22.82,317.68,21.66,317.68,20.88Z" transform="translate(-285.34 1.76)" fill="#fff"/><path d="M294.4,27.09v0.52A2.55,2.55,0,0,0,297,29.94a2.59,2.59,0,0,0,0-5.17A2.55,2.55,0,0,0,294.4,27.09Z" transform="translate(-285.34 1.76)" fill="#fff"/></svg>