<?xml version="1.0" encoding="utf-8"?>
<!-- Generator: Adobe Illustrator 19.2.1, SVG Export Plug-In . SVG Version: 6.00 Build 0)  -->
<!DOCTYPE svg PUBLIC "-//W3C//DTD SVG 1.1//EN" "http://www.w3.org/Graphics/SVG/1.1/DTD/svg11.dtd">
<svg version="1.1" id="Layer_1" xmlns="http://www.w3.org/2000/svg" xmlns:xlink="http://www.w3.org/1999/xlink" x="0px" y="0px"
	 width="600px" height="600px" viewBox="0 0 600 600" enable-background="new 0 0 600 600" xml:space="preserve">
<g>
	<path fill="#FFFFFF" d="M381.4,363l-160-80L23,415.3c13,31.2,31.2,59.8,53.4,84.7H210v10H85.8c3.3,3.4,6.8,6.7,10.3,10H210v10
		H107.4c4.1,3.4,8.3,6.8,12.6,10h90v10h-75.9c5.3,3.5,10.6,6.8,16.1,10H210v10h-40.9c7.5,3.6,15.2,7,23,10H210v6.3
		c28.4,8.9,58.6,13.7,90,13.7s61.6-4.8,90-13.7V580h17.9c7.8-3,15.5-6.4,23-10H390v-10h59.8c5.5-3.2,10.8-6.5,16.1-10H390v-10h90
		c4.3-3.2,8.5-6.6,12.6-10H390v-10h113.9c3.5-3.3,6.9-6.6,10.3-10H390v-10h133.6c47.5-53.1,76.4-123.2,76.4-200
		c0-26.3-3.4-51.8-9.8-76.2L381.4,363z M210,490H70v-10h140V490z M210,470H70v-10h140V470z M210,450H70v-10h140V450z M210,430H70
		v-10h140V430z M210,410H70v-10h140V410z M210,390H79l15-10h116V390z M210,370H109l15-10h86V370z M210,350h-71l15-10h56V350z
		 M210,330h-41l15-10h26V330z M210,310h-11l11-7.3V310z M230,300h3l20,10h-23V300z M230,320h43l20,10h-63V320z M230,340h83l20,10
		H230V340z M370,590H230v-10h140V590z M370,570H230v-10h140V570z M370,550H230v-10h140V550z M370,530H230v-10h140V530z M370,510H230
		v-10h140V510z M370,490H230v-10h140V490z M370,470H230v-10h140V470z M370,450H230v-10h140V450z M370,430H230v-10h140V430z M370,410
		H230v-10h140V410z M370,390H230v-10h140V390z M370,370H230v-10h123l17,8.5V370z M530,490H390v-10h140V490z M530,470H390v-10h140
		V470z M530,450H390v-10h140V450z M530,430H390v-10h140V430z M530,410H390v-10h140V410z M530,390H390v-10h140V390z M530,370H390
		v-0.6l14-9.4h126V370z M530,350H419l15-10h96V350z M530,330h-81l15-10h66V330z M530,310h-51l15-10h36V310z M509,290l15-10h6v10H509
		z"/>
	<path fill="#FFFFFF" d="M218.6,236.9l160,80L577,184.6C531.8,76.2,424.8,0,300,0C134.3,0,0,134.3,0,300c0,26.3,3.4,51.8,9.7,76.1
		L218.6,236.9z M390,120h140v10H390V120z M390,140h140v10H390V140z M390,160h140v10H390V160z M390,180h140v10H390V180z M390,200h140
		v3.9l-9.1,6.1H390V200z M390,220h115.9l-15,10H390V220z M390,240h85.9l-15,10H390V240z M390,260h55.9l-15,10H390V260z M390,280
		h25.9l-15,10H390V280z M370,301.4l-2.8-1.4h2.8V301.4z M370,290h-22.8l-20-10H370V290z M370,270h-62.9l-20-10H370V270z M370,250
		H267.1l-20-10H370V250z M230,40h140v10H230V40z M230,60h140v10H230V60z M230,80h140v10H230V80z M230,100h140v10H230V100z M230,120
		h140v10H230V120z M230,140h140v10H230V140z M230,160h140v10H230V160z M230,180h140v10H230V180z M230,200h140v10H230V200z M230,220
		h140v10H230V220z M70,180h140v10H70V180z M70,200h140v10H70V200z M70,220h140v10H70V220z M70,240h125.9l-15,10H70V240z M70,260
		h95.9l-15,10H70V260z M70,280h65.9l-15,10H70V280z M70,300h35.9l-15,10H70V300z M75.9,320l-5.9,3.9V320H75.9z"/>
</g>
</svg>
