<?xml version="1.0" encoding="utf-8"?>
<!-- Generator: Adobe Illustrator 19.2.1, SVG Export Plug-In . SVG Version: 6.00 Build 0)  -->
<!DOCTYPE svg PUBLIC "-//W3C//DTD SVG 1.1//EN" "http://www.w3.org/Graphics/SVG/1.1/DTD/svg11.dtd">
<svg version="1.1" id="Layer_1" xmlns="http://www.w3.org/2000/svg" xmlns:xlink="http://www.w3.org/1999/xlink" x="0px" y="0px"
	 width="600px" height="600px" viewBox="0 0 600 600" enable-background="new 0 0 600 600" xml:space="preserve">
<path fill="#FFFFFF" d="M388.3,530H450c11,0,20-9,20-20v-80c0-11-9-20-20-20H20.8c1.3,3.4,2.7,6.7,4.2,10h5c5.5,0,10,4.5,10,10v19.8
	c3.2,5.5,6.5,10.8,10,16.1V430c0-5.5,4.5-10,10-10h40c5.5,0,10,4.5,10,10v40c0,5.5-4.5,10-10,10H60c0,0,0,0,0,0
	c8.1,10.8,17,21.1,26.5,30.7c10.2,2.2,18.4,9.6,21.8,19.3h223.4c4.1-11.7,15.2-20,28.3-20S384.2,518.3,388.3,530z M400,430
	c0-5.5,4.5-10,10-10h40c5.5,0,10,4.5,10,10v80c0,5.5-4.5,10-10,10h-40c-5.5,0-10-4.5-10-10V430z M180,470c0,5.5-4.5,10-10,10h-40
	c-5.5,0-10-4.5-10-10v-40c0-5.5,4.5-10,10-10h40c5.5,0,10,4.5,10,10V470z M250,510c0,5.5-4.5,10-10,10h-40c-5.5,0-10-4.5-10-10v-80
	c0-5.5,4.5-10,10-10h40c5.5,0,10,4.5,10,10V510z M320,470c0,5.5-4.5,10-10,10h-40c-5.5,0-10-4.5-10-10v-40c0-5.5,4.5-10,10-10h40
	c5.5,0,10,4.5,10,10V470z M340,480c-5.5,0-10-4.5-10-10v-40c0-5.5,4.5-10,10-10h40c5.5,0,10,4.5,10,10v40c0,5.5-4.5,10-10,10H340z
	 M360,520c11,0,20,9,20,20s-9,20-20,20s-20-9-20-20S349,520,360,520z M380,430l0,40c0,0,0,0,0,0l-40,0c0,0,0,0,0,0c0,0,0,0,0,0l0-40
	c0,0,0,0,0,0L380,430C380,430,380,430,380,430C380,430,380,430,380,430z M20,200c-1,0-1.9-0.1-2.8-0.2c4.3-12.2,9.4-24,15.2-35.5
	C37,168,40,173.6,40,180C40,191,31,200,20,200z M107.4,70h2.6c0,0,0,0,0,0c0,0,0,0,0,0l0,40c0,0,0,0,0,0l-40,0c0,0,0,0,0,0
	c0,0,0,0,0,0l0-2.6C81.3,93.9,93.9,81.3,107.4,70z M310,430l0,40c0,0,0,0,0,0l-40,0c0,0,0,0,0,0c0,0,0,0,0,0l0-40c0,0,0,0,0,0
	L310,430C310,430,310,430,310,430C310,430,310,430,310,430z M60,470l0-40c0,0,0,0,0,0h40c0,0,0,0,0,0c0,0,0,0,0,0l0,40c0,0,0,0,0,0
	L60,470C60,470,60,470,60,470C60,470,60,470,60,470z M180,360c0,11-9,20-20,20s-20-9-20-20c0-11,9-20,20-20S180,349,180,360z
	 M180,70l0,80c0,0,0,0,0,0l-40,0c0,0,0,0,0,0c0,0,0,0,0,0l0-80c0,0,0,0,0,0L180,70C180,70,180,70,180,70C180,70,180,70,180,70z
	 M328.3,170H390c11,0,20-9,20-20V70c0-11-9-20-20-20H134.1c-6,4-11.8,8.2-17.5,12.6c2.1,1.8,3.4,4.5,3.4,7.4v40c0,5.5-4.5,10-10,10
	H70c-3,0-5.6-1.3-7.4-3.4c-9.4,12.2-18,25.1-25.4,38.7c5.1,3.6,9.1,8.7,11.2,14.6h223.4c4.1-11.7,15.2-20,28.3-20
	S324.2,158.3,328.3,170z M340,70c0-5.5,4.5-10,10-10h40c5.5,0,10,4.5,10,10v80c0,5.5-4.5,10-10,10h-40c-5.5,0-10-4.5-10-10V70z
	 M190,150c0,5.5-4.5,10-10,10h-40c-5.5,0-10-4.5-10-10V70c0-5.5,4.5-10,10-10h40c5.5,0,10,4.5,10,10V150z M260,110
	c0,5.5-4.5,10-10,10h-40c-5.5,0-10-4.5-10-10V70c0-5.5,4.5-10,10-10h40c5.5,0,10,4.5,10,10V110z M280,120c-5.5,0-10-4.5-10-10V70
	c0-5.5,4.5-10,10-10h40c5.5,0,10,4.5,10,10v40c0,5.5-4.5,10-10,10H280z M250,70l0,40c0,0,0,0,0,0l-40,0c0,0,0,0,0,0c0,0,0,0,0,0
	l0-40c0,0,0,0,0,0L250,70C250,70,250,70,250,70C250,70,250,70,250,70z M320,70l0,40c0,0,0,0,0,0l-40,0c0,0,0,0,0,0c0,0,0,0,0,0l0-40
	c0,0,0,0,0,0L320,70C320,70,320,70,320,70C320,70,320,70,320,70z M350,150l0-80c0,0,0,0,0,0h40c0,0,0,0,0,0c0,0,0,0,0,0l0,80
	c0,0,0,0,0,0L350,150C350,150,350,150,350,150C350,150,350,150,350,150z M240,430l0,80c0,0,0,0,0,0l-40,0c0,0,0,0,0,0c0,0,0,0,0,0
	l0-80c0,0,0,0,0,0L240,430C240,430,240,430,240,430C240,430,240,430,240,430z M300,160c11,0,20,9,20,20s-9,20-20,20s-20-9-20-20
	S289,160,300,160z M170,430l0,40c0,0,0,0,0,0l-40,0c0,0,0,0,0,0c0,0,0,0,0,0l0-40c0,0,0,0,0,0L170,430C170,430,170,430,170,430
	C170,430,170,430,170,430z M410,510l0-80c0,0,0,0,0,0h40c0,0,0,0,0,0c0,0,0,0,0,0l0,80c0,0,0,0,0,0L410,510C410,510,410,510,410,510
	C410,510,410,510,410,510z M180,250l0,40c0,0,0,0,0,0l-40,0c0,0,0,0,0,0c0,0,0,0,0,0l0-40c0,0,0,0,0,0L180,250
	C180,250,180,250,180,250C180,250,180,250,180,250z M390,250l0,40c0,0,0,0,0,0l-40,0c0,0,0,0,0,0c0,0,0,0,0,0l0-40c0,0,0,0,0,0
	L390,250C390,250,390,250,390,250C390,250,390,250,390,250z M530,230H70c-11,0-20,9-20,20v80c0,11,9,20,20,20h61.7
	c4.1-11.7,15.2-20,28.3-20s24.2,8.3,28.3,20h223.4c4.1-11.7,15.2-20,28.3-20s24.2,8.3,28.3,20H530c11,0,20-9,20-20v-80
	C550,239,541,230,530,230z M120,330c0,5.5-4.5,10-10,10H70c-5.5,0-10-4.5-10-10v-80c0-5.5,4.5-10,10-10h40c5.5,0,10,4.5,10,10V330z
	 M190,290c0,5.5-4.5,10-10,10h-40c-5.5,0-10-4.5-10-10v-40c0-5.5,4.5-10,10-10h40c5.5,0,10,4.5,10,10V290z M260,290
	c0,5.5-4.5,10-10,10h-40c-5.5,0-10-4.5-10-10v-40c0-5.5,4.5-10,10-10h40c5.5,0,10,4.5,10,10V290z M330,330c0,5.5-4.5,10-10,10h-40
	c-5.5,0-10-4.5-10-10v-80c0-5.5,4.5-10,10-10h40c5.5,0,10,4.5,10,10V330z M400,290c0,5.5-4.5,10-10,10h-40c-5.5,0-10-4.5-10-10v-40
	c0-5.5,4.5-10,10-10h40c5.5,0,10,4.5,10,10V290z M470,290c0,5.5-4.5,10-10,10h-40c-5.5,0-10-4.5-10-10v-40c0-5.5,4.5-10,10-10h40
	c5.5,0,10,4.5,10,10V290z M540,330c0,5.5-4.5,10-10,10h-40c-5.5,0-10-4.5-10-10v-80c0-5.5,4.5-10,10-10h40c5.5,0,10,4.5,10,10V330z
	 M320,250l0,80c0,0,0,0,0,0l-40,0c0,0,0,0,0,0c0,0,0,0,0,0l0-80c0,0,0,0,0,0L320,250C320,250,320,250,320,250
	C320,250,320,250,320,250z M530,250l0,80c0,0,0,0,0,0l-40,0c0,0,0,0,0,0c0,0,0,0,0,0l0-80c0,0,0,0,0,0L530,250
	C530,250,530,250,530,250C530,250,530,250,530,250z M460,250l0,40c0,0,0,0,0,0l-40,0c0,0,0,0,0,0c0,0,0,0,0,0l0-40c0,0,0,0,0,0
	L460,250C460,250,460,250,460,250C460,250,460,250,460,250z M460,360c0,11-9,20-20,20s-20-9-20-20c0-11,9-20,20-20S460,349,460,360z
	 M300,0c-54.5,0-105.7,14.6-149.8,40H390c16.5,0,30,13.5,30,30v80c0,16.5-13.5,30-30,30h-60c0,16.6-13.4,30-30,30s-30-13.4-30-30H50
	c0,16.6-13.4,30-30,30c-2.1,0-4.1-0.2-6.1-0.6C4.9,238,0,268.4,0,300c0,35.1,6,68.7,17.1,100H450c16.5,0,30,13.5,30,30v80
	c0,16.5-13.5,30-30,30h-60c0,16.6-13.4,30-30,30s-30-13.4-30-30H120c50.1,37.7,112.5,60,180,60c165.7,0,300-134.3,300-300
	S465.7,0,300,0z M530,360h-60c0,16.6-13.4,30-30,30s-30-13.4-30-30H190c0,16.6-13.4,30-30,30s-30-13.4-30-30H70
	c-16.5,0-30-13.5-30-30v-80c0-16.5,13.5-30,30-30h460c16.5,0,30,13.5,30,30v80C560,346.5,546.5,360,530,360z M250,250l0,40
	c0,0,0,0,0,0l-40,0c0,0,0,0,0,0c0,0,0,0,0,0l0-40c0,0,0,0,0,0L250,250C250,250,250,250,250,250C250,250,250,250,250,250z M110,250
	l0,80c0,0,0,0,0,0l-40,0c0,0,0,0,0,0c0,0,0,0,0,0l0-80c0,0,0,0,0,0L110,250C110,250,110,250,110,250C110,250,110,250,110,250z"/>
</svg>
